<?xml version="1.0" encoding="UTF-8"?>
<svg xmlns="http://www.w3.org/2000/svg" width="940" height="560" viewBox="0 0 940 560" role="img" aria-label="map-default">
  <defs>
    <linearGradient id="bgGradient" x1="0%" y1="0%" x2="100%" y2="100%">
      <stop offset="0%" stop-color="#fff7ed"/>
      <stop offset="100%" stop-color="#eff6ff"/>
    </linearGradient>
    <filter id="tileShadow" x="-20%" y="-20%" width="140%" height="140%">
      <feDropShadow dx="0" dy="2" stdDeviation="2" flood-opacity="0.18"/>
    </filter>
  </defs>
  <rect x="0" y="0" width="940" height="560" fill="url(#bgGradient)"/>
  <rect x="10" y="10" width="920" height="540" rx="16" ry="16" fill="none" stroke="#d6dbe7" stroke-width="2"/>
  <text x="470" y="30" text-anchor="middle" fill="#334155" font-size="16" font-family="Segoe UI, Arial">default / city-night</text>
  <g id="track-layer">
    <path d="M 120.0 95.0 Q 210.0 95.0 300.0 95.0 Q 390.0 95.0 480.0 95.0 Q 570.0 95.0 660.0 95.0 Q 745.0 95.0 830.0 95.0 Q 830.0 160.0 830.0 225.0 Q 830.0 290.0 830.0 355.0 Q 830.0 415.0 830.0 475.0 Q 745.0 475.0 660.0 475.0 Q 570.0 475.0 480.0 475.0 Q 390.0 475.0 300.0 475.0 Q 210.0 475.0 120.0 475.0 Q 120.0 415.0 120.0 355.0 Q 120.0 290.0 120.0 225.0 Q 210.0 225.0 300.0 225.0 Q 390.0 225.0 480.0 225.0 Q 300.0 160.0 120.0 95.0" fill="none" stroke="#dbeafe" stroke-width="18" stroke-linecap="round" stroke-linejoin="round"/>
    <path d="M 120.0 95.0 Q 210.0 95.0 300.0 95.0 Q 390.0 95.0 480.0 95.0 Q 570.0 95.0 660.0 95.0 Q 745.0 95.0 830.0 95.0 Q 830.0 160.0 830.0 225.0 Q 830.0 290.0 830.0 355.0 Q 830.0 415.0 830.0 475.0 Q 745.0 475.0 660.0 475.0 Q 570.0 475.0 480.0 475.0 Q 390.0 475.0 300.0 475.0 Q 210.0 475.0 120.0 475.0 Q 120.0 415.0 120.0 355.0 Q 120.0 290.0 120.0 225.0 Q 210.0 225.0 300.0 225.0 Q 390.0 225.0 480.0 225.0 Q 300.0 160.0 120.0 95.0" fill="none" stroke="#60a5fa" stroke-width="7" stroke-linecap="round" stroke-linejoin="round" opacity="0.9"/>
  </g>
  <g id="tile-T00" data-tile-id="T00" data-tile-index="0" data-token-slots="86.4,125.8;108.8,125.8;131.2,125.8;153.6,125.8">
    <rect x="40.0" y="40.0" rx="10" ry="10" width="160.0" height="110.0" fill="#ffe8b5" stroke="#0f172a" stroke-width="2" filter="url(#tileShadow)"/>
    <text x="120.0" y="64.0" text-anchor="middle" fill="#0f172a" font-size="12" font-family="Segoe UI, Arial">T00 · START</text>
    <text x="120.0" y="88.0" text-anchor="middle" fill="#111827" font-size="14" font-family="Segoe UI, Arial">Start</text>
    <text x="120.0" y="108.0" text-anchor="middle" fill="#334155" font-size="11" font-family="Consolas, monospace">price=- toll=-</text>
  </g>
  <circle cx="86.4" cy="125.8" r="4.5" fill="#ffffff" stroke="#64748b" stroke-width="1" opacity="0.9"/>
  <circle cx="108.8" cy="125.8" r="4.5" fill="#ffffff" stroke="#64748b" stroke-width="1" opacity="0.9"/>
  <circle cx="131.2" cy="125.8" r="4.5" fill="#ffffff" stroke="#64748b" stroke-width="1" opacity="0.9"/>
  <circle cx="153.6" cy="125.8" r="4.5" fill="#ffffff" stroke="#64748b" stroke-width="1" opacity="0.9"/>
  <g id="tile-T01" data-tile-id="T01" data-tile-index="1" data-token-slots="266.4,125.8;288.8,125.8;311.2,125.8;333.6,125.8">
    <rect x="220.0" y="40.0" rx="10" ry="10" width="160.0" height="110.0" fill="#d9ecff" stroke="#0f172a" stroke-width="2" filter="url(#tileShadow)"/>
    <text x="300.0" y="64.0" text-anchor="middle" fill="#0f172a" font-size="12" font-family="Segoe UI, Arial">T01 · PROPERTY</text>
    <text x="300.0" y="88.0" text-anchor="middle" fill="#111827" font-size="14" font-family="Segoe UI, Arial">Hill Road</text>
    <text x="300.0" y="108.0" text-anchor="middle" fill="#334155" font-size="11" font-family="Consolas, monospace">price=200 toll=40</text>
  </g>
  <circle cx="266.4" cy="125.8" r="4.5" fill="#ffffff" stroke="#64748b" stroke-width="1" opacity="0.9"/>
  <circle cx="288.8" cy="125.8" r="4.5" fill="#ffffff" stroke="#64748b" stroke-width="1" opacity="0.9"/>
  <circle cx="311.2" cy="125.8" r="4.5" fill="#ffffff" stroke="#64748b" stroke-width="1" opacity="0.9"/>
  <circle cx="333.6" cy="125.8" r="4.5" fill="#ffffff" stroke="#64748b" stroke-width="1" opacity="0.9"/>
  <g id="tile-T02" data-tile-id="T02" data-tile-index="2" data-token-slots="446.4,125.8;468.8,125.8;491.2,125.8;513.6,125.8">
    <rect x="400.0" y="40.0" rx="10" ry="10" width="160.0" height="110.0" fill="#ecf2f9" stroke="#0f172a" stroke-width="2" filter="url(#tileShadow)"/>
    <text x="480.0" y="64.0" text-anchor="middle" fill="#0f172a" font-size="12" font-family="Segoe UI, Arial">T02 · EMPTY</text>
    <text x="480.0" y="88.0" text-anchor="middle" fill="#111827" font-size="14" font-family="Segoe UI, Arial">Open Park</text>
    <text x="480.0" y="108.0" text-anchor="middle" fill="#334155" font-size="11" font-family="Consolas, monospace">price=- toll=-</text>
  </g>
  <circle cx="446.4" cy="125.8" r="4.5" fill="#ffffff" stroke="#64748b" stroke-width="1" opacity="0.9"/>
  <circle cx="468.8" cy="125.8" r="4.5" fill="#ffffff" stroke="#64748b" stroke-width="1" opacity="0.9"/>
  <circle cx="491.2" cy="125.8" r="4.5" fill="#ffffff" stroke="#64748b" stroke-width="1" opacity="0.9"/>
  <circle cx="513.6" cy="125.8" r="4.5" fill="#ffffff" stroke="#64748b" stroke-width="1" opacity="0.9"/>
  <g id="tile-T03" data-tile-id="T03" data-tile-index="3" data-token-slots="626.4,125.8;648.8,125.8;671.2,125.8;693.6,125.8">
    <rect x="580.0" y="40.0" rx="10" ry="10" width="160.0" height="110.0" fill="#cdf7df" stroke="#0f172a" stroke-width="2" filter="url(#tileShadow)"/>
    <text x="660.0" y="64.0" text-anchor="middle" fill="#0f172a" font-size="12" font-family="Segoe UI, Arial">T03 · BANK</text>
    <text x="660.0" y="88.0" text-anchor="middle" fill="#111827" font-size="14" font-family="Segoe UI, Arial">City Bank</text>
    <text x="660.0" y="108.0" text-anchor="middle" fill="#334155" font-size="11" font-family="Consolas, monospace">price=- toll=-</text>
  </g>
  <circle cx="626.4" cy="125.8" r="4.5" fill="#ffffff" stroke="#64748b" stroke-width="1" opacity="0.9"/>
  <circle cx="648.8" cy="125.8" r="4.5" fill="#ffffff" stroke="#64748b" stroke-width="1" opacity="0.9"/>
  <circle cx="671.2" cy="125.8" r="4.5" fill="#ffffff" stroke="#64748b" stroke-width="1" opacity="0.9"/>
  <circle cx="693.6" cy="125.8" r="4.5" fill="#ffffff" stroke="#64748b" stroke-width="1" opacity="0.9"/>
  <g id="tile-T04" data-tile-id="T04" data-tile-index="4" data-token-slots="800.6,125.8;820.2,125.8;839.8,125.8;859.4,125.8">
    <rect x="760.0" y="40.0" rx="10" ry="10" width="140.0" height="110.0" fill="#ffd6ec" stroke="#0f172a" stroke-width="2" filter="url(#tileShadow)"/>
    <text x="830.0" y="64.0" text-anchor="middle" fill="#0f172a" font-size="12" font-family="Segoe UI, Arial">T04 · EVENT</text>
    <text x="830.0" y="88.0" text-anchor="middle" fill="#111827" font-size="14" font-family="Segoe UI, Arial">Event Plaza</text>
    <text x="830.0" y="108.0" text-anchor="middle" fill="#334155" font-size="11" font-family="Consolas, monospace">price=- toll=-</text>
  </g>
  <circle cx="800.6" cy="125.8" r="4.5" fill="#ffffff" stroke="#64748b" stroke-width="1" opacity="0.9"/>
  <circle cx="820.2" cy="125.8" r="4.5" fill="#ffffff" stroke="#64748b" stroke-width="1" opacity="0.9"/>
  <circle cx="839.8" cy="125.8" r="4.5" fill="#ffffff" stroke="#64748b" stroke-width="1" opacity="0.9"/>
  <circle cx="859.4" cy="125.8" r="4.5" fill="#ffffff" stroke="#64748b" stroke-width="1" opacity="0.9"/>
  <g id="tile-T05" data-tile-id="T05" data-tile-index="5" data-token-slots="800.6,255.8;820.2,255.8;839.8,255.8;859.4,255.8">
    <rect x="760.0" y="170.0" rx="10" ry="10" width="140.0" height="110.0" fill="#d9ecff" stroke="#0f172a" stroke-width="2" filter="url(#tileShadow)"/>
    <text x="830.0" y="194.0" text-anchor="middle" fill="#0f172a" font-size="12" font-family="Segoe UI, Arial">T05 · PROPERTY</text>
    <text x="830.0" y="218.0" text-anchor="middle" fill="#111827" font-size="14" font-family="Segoe UI, Arial">River Side</text>
    <text x="830.0" y="238.0" text-anchor="middle" fill="#334155" font-size="11" font-family="Consolas, monospace">price=240 toll=48</text>
  </g>
  <circle cx="800.6" cy="255.8" r="4.5" fill="#ffffff" stroke="#64748b" stroke-width="1" opacity="0.9"/>
  <circle cx="820.2" cy="255.8" r="4.5" fill="#ffffff" stroke="#64748b" stroke-width="1" opacity="0.9"/>
  <circle cx="839.8" cy="255.8" r="4.5" fill="#ffffff" stroke="#64748b" stroke-width="1" opacity="0.9"/>
  <circle cx="859.4" cy="255.8" r="4.5" fill="#ffffff" stroke="#64748b" stroke-width="1" opacity="0.9"/>
  <g id="tile-T06" data-tile-id="T06" data-tile-index="6" data-token-slots="800.6,385.8;820.2,385.8;839.8,385.8;859.4,385.8">
    <rect x="760.0" y="300.0" rx="10" ry="10" width="140.0" height="110.0" fill="#ecf2f9" stroke="#0f172a" stroke-width="2" filter="url(#tileShadow)"/>
    <text x="830.0" y="324.0" text-anchor="middle" fill="#0f172a" font-size="12" font-family="Segoe UI, Arial">T06 · EMPTY</text>
    <text x="830.0" y="348.0" text-anchor="middle" fill="#111827" font-size="14" font-family="Segoe UI, Arial">Coffee Spot</text>
    <text x="830.0" y="368.0" text-anchor="middle" fill="#334155" font-size="11" font-family="Consolas, monospace">price=- toll=-</text>
  </g>
  <circle cx="800.6" cy="385.8" r="4.5" fill="#ffffff" stroke="#64748b" stroke-width="1" opacity="0.9"/>
  <circle cx="820.2" cy="385.8" r="4.5" fill="#ffffff" stroke="#64748b" stroke-width="1" opacity="0.9"/>
  <circle cx="839.8" cy="385.8" r="4.5" fill="#ffffff" stroke="#64748b" stroke-width="1" opacity="0.9"/>
  <circle cx="859.4" cy="385.8" r="4.5" fill="#ffffff" stroke="#64748b" stroke-width="1" opacity="0.9"/>
  <g id="tile-T07" data-tile-id="T07" data-tile-index="7" data-token-slots="800.6,500.2;820.2,500.2;839.8,500.2;859.4,500.2">
    <rect x="760.0" y="430.0" rx="10" ry="10" width="140.0" height="90.0" fill="#d9ecff" stroke="#0f172a" stroke-width="2" filter="url(#tileShadow)"/>
    <text x="830.0" y="454.0" text-anchor="middle" fill="#0f172a" font-size="12" font-family="Segoe UI, Arial">T07 · PROPERTY</text>
    <text x="830.0" y="478.0" text-anchor="middle" fill="#111827" font-size="14" font-family="Segoe UI, Arial">Sunset Ave</text>
    <text x="830.0" y="498.0" text-anchor="middle" fill="#334155" font-size="11" font-family="Consolas, monospace">price=280 toll=56</text>
  </g>
  <circle cx="800.6" cy="500.2" r="4.5" fill="#ffffff" stroke="#64748b" stroke-width="1" opacity="0.9"/>
  <circle cx="820.2" cy="500.2" r="4.5" fill="#ffffff" stroke="#64748b" stroke-width="1" opacity="0.9"/>
  <circle cx="839.8" cy="500.2" r="4.5" fill="#ffffff" stroke="#64748b" stroke-width="1" opacity="0.9"/>
  <circle cx="859.4" cy="500.2" r="4.5" fill="#ffffff" stroke="#64748b" stroke-width="1" opacity="0.9"/>
  <g id="tile-T08" data-tile-id="T08" data-tile-index="8" data-token-slots="626.4,500.2;648.8,500.2;671.2,500.2;693.6,500.2">
    <rect x="580.0" y="430.0" rx="10" ry="10" width="160.0" height="90.0" fill="#cdf7df" stroke="#0f172a" stroke-width="2" filter="url(#tileShadow)"/>
    <text x="660.0" y="454.0" text-anchor="middle" fill="#0f172a" font-size="12" font-family="Segoe UI, Arial">T08 · BANK</text>
    <text x="660.0" y="478.0" text-anchor="middle" fill="#111827" font-size="14" font-family="Segoe UI, Arial">Main Bank</text>
    <text x="660.0" y="498.0" text-anchor="middle" fill="#334155" font-size="11" font-family="Consolas, monospace">price=- toll=-</text>
  </g>
  <circle cx="626.4" cy="500.2" r="4.5" fill="#ffffff" stroke="#64748b" stroke-width="1" opacity="0.9"/>
  <circle cx="648.8" cy="500.2" r="4.5" fill="#ffffff" stroke="#64748b" stroke-width="1" opacity="0.9"/>
  <circle cx="671.2" cy="500.2" r="4.5" fill="#ffffff" stroke="#64748b" stroke-width="1" opacity="0.9"/>
  <circle cx="693.6" cy="500.2" r="4.5" fill="#ffffff" stroke="#64748b" stroke-width="1" opacity="0.9"/>
  <g id="tile-T09" data-tile-id="T09" data-tile-index="9" data-token-slots="446.4,500.2;468.8,500.2;491.2,500.2;513.6,500.2">
    <rect x="400.0" y="430.0" rx="10" ry="10" width="160.0" height="90.0" fill="#ffd6ec" stroke="#0f172a" stroke-width="2" filter="url(#tileShadow)"/>
    <text x="480.0" y="454.0" text-anchor="middle" fill="#0f172a" font-size="12" font-family="Segoe UI, Arial">T09 · EVENT</text>
    <text x="480.0" y="478.0" text-anchor="middle" fill="#111827" font-size="14" font-family="Segoe UI, Arial">Fortune Gate</text>
    <text x="480.0" y="498.0" text-anchor="middle" fill="#334155" font-size="11" font-family="Consolas, monospace">price=- toll=-</text>
  </g>
  <circle cx="446.4" cy="500.2" r="4.5" fill="#ffffff" stroke="#64748b" stroke-width="1" opacity="0.9"/>
  <circle cx="468.8" cy="500.2" r="4.5" fill="#ffffff" stroke="#64748b" stroke-width="1" opacity="0.9"/>
  <circle cx="491.2" cy="500.2" r="4.5" fill="#ffffff" stroke="#64748b" stroke-width="1" opacity="0.9"/>
  <circle cx="513.6" cy="500.2" r="4.5" fill="#ffffff" stroke="#64748b" stroke-width="1" opacity="0.9"/>
  <g id="tile-T10" data-tile-id="T10" data-tile-index="10" data-token-slots="266.4,500.2;288.8,500.2;311.2,500.2;333.6,500.2">
    <rect x="220.0" y="430.0" rx="10" ry="10" width="160.0" height="90.0" fill="#d9ecff" stroke="#0f172a" stroke-width="2" filter="url(#tileShadow)"/>
    <text x="300.0" y="454.0" text-anchor="middle" fill="#0f172a" font-size="12" font-family="Segoe UI, Arial">T10 · PROPERTY</text>
    <text x="300.0" y="478.0" text-anchor="middle" fill="#111827" font-size="14" font-family="Segoe UI, Arial">Lake View</text>
    <text x="300.0" y="498.0" text-anchor="middle" fill="#334155" font-size="11" font-family="Consolas, monospace">price=320 toll=64</text>
  </g>
  <circle cx="266.4" cy="500.2" r="4.5" fill="#ffffff" stroke="#64748b" stroke-width="1" opacity="0.9"/>
  <circle cx="288.8" cy="500.2" r="4.5" fill="#ffffff" stroke="#64748b" stroke-width="1" opacity="0.9"/>
  <circle cx="311.2" cy="500.2" r="4.5" fill="#ffffff" stroke="#64748b" stroke-width="1" opacity="0.9"/>
  <circle cx="333.6" cy="500.2" r="4.5" fill="#ffffff" stroke="#64748b" stroke-width="1" opacity="0.9"/>
  <g id="tile-T11" data-tile-id="T11" data-tile-index="11" data-token-slots="86.4,500.2;108.8,500.2;131.2,500.2;153.6,500.2">
    <rect x="40.0" y="430.0" rx="10" ry="10" width="160.0" height="90.0" fill="#ecf2f9" stroke="#0f172a" stroke-width="2" filter="url(#tileShadow)"/>
    <text x="120.0" y="454.0" text-anchor="middle" fill="#0f172a" font-size="12" font-family="Segoe UI, Arial">T11 · EMPTY</text>
    <text x="120.0" y="478.0" text-anchor="middle" fill="#111827" font-size="14" font-family="Segoe UI, Arial">Metro Station</text>
    <text x="120.0" y="498.0" text-anchor="middle" fill="#334155" font-size="11" font-family="Consolas, monospace">price=- toll=-</text>
  </g>
  <circle cx="86.4" cy="500.2" r="4.5" fill="#ffffff" stroke="#64748b" stroke-width="1" opacity="0.9"/>
  <circle cx="108.8" cy="500.2" r="4.5" fill="#ffffff" stroke="#64748b" stroke-width="1" opacity="0.9"/>
  <circle cx="131.2" cy="500.2" r="4.5" fill="#ffffff" stroke="#64748b" stroke-width="1" opacity="0.9"/>
  <circle cx="153.6" cy="500.2" r="4.5" fill="#ffffff" stroke="#64748b" stroke-width="1" opacity="0.9"/>
  <g id="tile-T12" data-tile-id="T12" data-tile-index="12" data-token-slots="86.4,385.8;108.8,385.8;131.2,385.8;153.6,385.8">
    <rect x="40.0" y="300.0" rx="10" ry="10" width="160.0" height="110.0" fill="#d9ecff" stroke="#0f172a" stroke-width="2" filter="url(#tileShadow)"/>
    <text x="120.0" y="324.0" text-anchor="middle" fill="#0f172a" font-size="12" font-family="Segoe UI, Arial">T12 · PROPERTY</text>
    <text x="120.0" y="348.0" text-anchor="middle" fill="#111827" font-size="14" font-family="Segoe UI, Arial">Market Square</text>
    <text x="120.0" y="368.0" text-anchor="middle" fill="#334155" font-size="11" font-family="Consolas, monospace">price=360 toll=72</text>
  </g>
  <circle cx="86.4" cy="385.8" r="4.5" fill="#ffffff" stroke="#64748b" stroke-width="1" opacity="0.9"/>
  <circle cx="108.8" cy="385.8" r="4.5" fill="#ffffff" stroke="#64748b" stroke-width="1" opacity="0.9"/>
  <circle cx="131.2" cy="385.8" r="4.5" fill="#ffffff" stroke="#64748b" stroke-width="1" opacity="0.9"/>
  <circle cx="153.6" cy="385.8" r="4.5" fill="#ffffff" stroke="#64748b" stroke-width="1" opacity="0.9"/>
  <g id="tile-T13" data-tile-id="T13" data-tile-index="13" data-token-slots="86.4,255.8;108.8,255.8;131.2,255.8;153.6,255.8">
    <rect x="40.0" y="170.0" rx="10" ry="10" width="160.0" height="110.0" fill="#ecf2f9" stroke="#0f172a" stroke-width="2" filter="url(#tileShadow)"/>
    <text x="120.0" y="194.0" text-anchor="middle" fill="#0f172a" font-size="12" font-family="Segoe UI, Arial">T13 · EMPTY</text>
    <text x="120.0" y="218.0" text-anchor="middle" fill="#111827" font-size="14" font-family="Segoe UI, Arial">Open Street</text>
    <text x="120.0" y="238.0" text-anchor="middle" fill="#334155" font-size="11" font-family="Consolas, monospace">price=- toll=-</text>
  </g>
  <circle cx="86.4" cy="255.8" r="4.5" fill="#ffffff" stroke="#64748b" stroke-width="1" opacity="0.9"/>
  <circle cx="108.8" cy="255.8" r="4.5" fill="#ffffff" stroke="#64748b" stroke-width="1" opacity="0.9"/>
  <circle cx="131.2" cy="255.8" r="4.5" fill="#ffffff" stroke="#64748b" stroke-width="1" opacity="0.9"/>
  <circle cx="153.6" cy="255.8" r="4.5" fill="#ffffff" stroke="#64748b" stroke-width="1" opacity="0.9"/>
  <g id="tile-T14" data-tile-id="T14" data-tile-index="14" data-token-slots="266.4,255.8;288.8,255.8;311.2,255.8;333.6,255.8">
    <rect x="220.0" y="170.0" rx="10" ry="10" width="160.0" height="110.0" fill="#ffd6ec" stroke="#0f172a" stroke-width="2" filter="url(#tileShadow)"/>
    <text x="300.0" y="194.0" text-anchor="middle" fill="#0f172a" font-size="12" font-family="Segoe UI, Arial">T14 · EVENT</text>
    <text x="300.0" y="218.0" text-anchor="middle" fill="#111827" font-size="14" font-family="Segoe UI, Arial">Lucky Lane</text>
    <text x="300.0" y="238.0" text-anchor="middle" fill="#334155" font-size="11" font-family="Consolas, monospace">price=- toll=-</text>
  </g>
  <circle cx="266.4" cy="255.8" r="4.5" fill="#ffffff" stroke="#64748b" stroke-width="1" opacity="0.9"/>
  <circle cx="288.8" cy="255.8" r="4.5" fill="#ffffff" stroke="#64748b" stroke-width="1" opacity="0.9"/>
  <circle cx="311.2" cy="255.8" r="4.5" fill="#ffffff" stroke="#64748b" stroke-width="1" opacity="0.9"/>
  <circle cx="333.6" cy="255.8" r="4.5" fill="#ffffff" stroke="#64748b" stroke-width="1" opacity="0.9"/>
  <g id="tile-T15" data-tile-id="T15" data-tile-index="15" data-token-slots="446.4,255.8;468.8,255.8;491.2,255.8;513.6,255.8">
    <rect x="400.0" y="170.0" rx="10" ry="10" width="160.0" height="110.0" fill="#cdf7df" stroke="#0f172a" stroke-width="2" filter="url(#tileShadow)"/>
    <text x="480.0" y="194.0" text-anchor="middle" fill="#0f172a" font-size="12" font-family="Segoe UI, Arial">T15 · BANK</text>
    <text x="480.0" y="218.0" text-anchor="middle" fill="#111827" font-size="14" font-family="Segoe UI, Arial">Reserve Bank</text>
    <text x="480.0" y="238.0" text-anchor="middle" fill="#334155" font-size="11" font-family="Consolas, monospace">price=- toll=-</text>
  </g>
  <circle cx="446.4" cy="255.8" r="4.5" fill="#ffffff" stroke="#64748b" stroke-width="1" opacity="0.9"/>
  <circle cx="468.8" cy="255.8" r="4.5" fill="#ffffff" stroke="#64748b" stroke-width="1" opacity="0.9"/>
  <circle cx="491.2" cy="255.8" r="4.5" fill="#ffffff" stroke="#64748b" stroke-width="1" opacity="0.9"/>
  <circle cx="513.6" cy="255.8" r="4.5" fill="#ffffff" stroke="#64748b" stroke-width="1" opacity="0.9"/>
</svg>
